<?xml version="1.0" encoding="UTF-8" standalone="no"?>
<!-- Created with Inkscape (http://www.inkscape.org/) -->

<svg
   xmlns:dc="http://purl.org/dc/elements/1.1/"
   xmlns:cc="http://creativecommons.org/ns#"
   xmlns:rdf="http://www.w3.org/1999/02/22-rdf-syntax-ns#"
   xmlns:svg="http://www.w3.org/2000/svg"
   xmlns="http://www.w3.org/2000/svg"
   xmlns:xlink="http://www.w3.org/1999/xlink"
   xmlns:sodipodi="http://sodipodi.sourceforge.net/DTD/sodipodi-0.dtd"
   xmlns:inkscape="http://www.inkscape.org/namespaces/inkscape"
   height="38.947487"
   width="60.833431"
   viewBox="0 0 60.833432 38.947487"
   id="svg6281"
   version="1.1"
   inkscape:version="0.91 r13725"
   sodipodi:docname="bell mine1.svg"
   inkscape:export-filename="/home/tim/Code/Lost Garden/Small World/TIMD Compat/house 1.svg.png"
   inkscape:export-xdpi="90"
   inkscape:export-ydpi="90">
  <defs
     id="defs6287">
    <linearGradient
       id="linearGradient4356">
      <stop
         style="stop-color:#75502d;stop-opacity:1;"
         offset="0"
         id="stop4358" />
      <stop
         style="stop-color:#704225;stop-opacity:1;"
         offset="1"
         id="stop4360" />
    </linearGradient>
    <linearGradient
       id="linearGradient4277-3-3">
      <stop
         style="stop-color:#1d131e;stop-opacity:1;"
         offset="0"
         id="stop4608" />
      <stop
         style="stop-color:#1d131e;stop-opacity:0;"
         offset="1"
         id="stop4610" />
    </linearGradient>
    <linearGradient
       id="linearGradient4277-3">
      <stop
         id="stop4933"
         offset="0"
         style="stop-color:#75502d;stop-opacity:1;" />
      <stop
         id="stop4935"
         offset="1"
         style="stop-color:#704225;stop-opacity:1;" />
    </linearGradient>
    <linearGradient
       id="linearGradient4321">
      <stop
         style="stop-color:#704225;stop-opacity:1;"
         offset="0"
         id="stop4323" />
      <stop
         style="stop-color:#704225;stop-opacity:0.50196081;"
         offset="1"
         id="stop4325" />
    </linearGradient>
    <linearGradient
       id="linearGradient4311">
      <stop
         style="stop-color:#411e05;stop-opacity:1;"
         offset="0"
         id="stop4313" />
      <stop
         style="stop-color:#704225;stop-opacity:1;"
         offset="1"
         id="stop4315" />
    </linearGradient>
    <linearGradient
       id="linearGradient4277">
      <stop
         style="stop-color:#62351c;stop-opacity:1;"
         offset="0"
         id="stop4279" />
      <stop
         style="stop-color:#3e2613;stop-opacity:1;"
         offset="1"
         id="stop4281" />
    </linearGradient>
    <linearGradient
       id="linearGradient3660">
      <stop
         style="stop-color:#1d131e;stop-opacity:1;"
         offset="0"
         id="stop3662" />
      <stop
         style="stop-color:#4d4a5d;stop-opacity:0"
         offset="1"
         id="stop3664" />
    </linearGradient>
    <linearGradient
       id="linearGradient3218">
      <stop
         style="stop-color:#e5e6c7;stop-opacity:1;"
         offset="0"
         id="stop3220" />
      <stop
         style="stop-color:#c4b59f;stop-opacity:1;"
         offset="1"
         id="stop3222" />
    </linearGradient>
    <linearGradient
       inkscape:collect="always"
       xlink:href="#linearGradient4277"
       id="linearGradient4283"
       x1="95.090797"
       y1="44.941334"
       x2="97.694977"
       y2="44.941334"
       gradientUnits="userSpaceOnUse"
       gradientTransform="translate(-58.871888,-18.337595)" />
    <linearGradient
       inkscape:collect="always"
       xlink:href="#linearGradient4277"
       id="linearGradient4291"
       x1="88.580353"
       y1="42.784863"
       x2="89.02243"
       y2="43.623959"
       gradientUnits="userSpaceOnUse"
       gradientTransform="translate(-69.809388,-23.525095)" />
    <linearGradient
       inkscape:collect="always"
       xlink:href="#linearGradient4277"
       id="linearGradient4299"
       x1="102.90334"
       y1="42.571724"
       x2="105.50751"
       y2="41.623878"
       gradientUnits="userSpaceOnUse"
       gradientTransform="translate(-58.871888,-18.337595)" />
    <linearGradient
       inkscape:collect="always"
       xlink:href="#linearGradient4277-3"
       id="linearGradient4317"
       x1="100.48239"
       y1="50.96722"
       x2="91.657799"
       y2="50.941334"
       gradientUnits="userSpaceOnUse"
       gradientTransform="translate(-63.934388,-18.243845)" />
    <linearGradient
       inkscape:collect="always"
       xlink:href="#linearGradient4277"
       id="linearGradient4279"
       x1="88.749794"
       y1="35.505798"
       x2="93.055382"
       y2="35.505798"
       gradientUnits="userSpaceOnUse"
       gradientTransform="translate(-63.934388,-20.243845)" />
    <linearGradient
       inkscape:collect="always"
       xlink:href="#linearGradient4277"
       id="linearGradient4290"
       x1="94.219269"
       y1="31.063133"
       x2="93.788712"
       y2="31.889175"
       gradientUnits="userSpaceOnUse"
       gradientTransform="translate(-63.934388,-20.243845)" />
    <linearGradient
       inkscape:collect="always"
       xlink:href="#linearGradient4277"
       id="linearGradient4913"
       x1="110.71587"
       y1="39.49123"
       x2="113.32005"
       y2="39.49123"
       gradientUnits="userSpaceOnUse"
       gradientTransform="translate(-58.840638,-16.962595)" />
    <linearGradient
       inkscape:collect="always"
       xlink:href="#linearGradient4277-3"
       id="linearGradient4929"
       x1="105.47238"
       y1="52.623878"
       x2="87.880058"
       y2="52.501926"
       gradientUnits="userSpaceOnUse"
       gradientTransform="translate(-63.934388,-20.243845)" />
    <linearGradient
       inkscape:collect="always"
       xlink:href="#linearGradient4277"
       id="linearGradient3517"
       gradientUnits="userSpaceOnUse"
       gradientTransform="translate(0,-22)"
       x1="93.78894"
       y1="68.416237"
       x2="98.996094"
       y2="68.416237" />
    <linearGradient
       inkscape:collect="always"
       xlink:href="#linearGradient4277"
       id="linearGradient3537"
       gradientUnits="userSpaceOnUse"
       gradientTransform="translate(0,-22)"
       x1="93.78894"
       y1="68.416237"
       x2="98.996094"
       y2="68.416237" />
    <linearGradient
       inkscape:collect="always"
       xlink:href="#linearGradient4277-3-3"
       id="linearGradient4379"
       gradientUnits="userSpaceOnUse"
       gradientTransform="translate(-63.934388,-18.243845)"
       x1="96.246796"
       y1="52.878834"
       x2="96.257736"
       y2="51.003834" />
    <linearGradient
       inkscape:collect="always"
       xlink:href="#linearGradient4277"
       id="linearGradient4388"
       gradientUnits="userSpaceOnUse"
       gradientTransform="translate(-23.934388,-18.243845)"
       x1="93.992889"
       y1="51.906563"
       x2="98.909386"
       y2="51.931911" />
    <linearGradient
       inkscape:collect="always"
       xlink:href="#linearGradient4277-3-3"
       id="linearGradient3530"
       gradientUnits="userSpaceOnUse"
       gradientTransform="translate(-23.934388,-18.243845)"
       x1="96.246796"
       y1="52.878834"
       x2="96.257736"
       y2="51.003834" />
    <linearGradient
       inkscape:collect="always"
       xlink:href="#linearGradient4277-3-3"
       id="linearGradient3534"
       gradientUnits="userSpaceOnUse"
       gradientTransform="translate(-3.934388,-18.243845)"
       x1="96.246796"
       y1="52.878834"
       x2="96.257736"
       y2="51.003834" />
    <linearGradient
       inkscape:collect="always"
       xlink:href="#linearGradient4277-3-3"
       id="linearGradient3538"
       gradientUnits="userSpaceOnUse"
       gradientTransform="translate(16.065612,-18.243845)"
       x1="96.246796"
       y1="52.878834"
       x2="96.257736"
       y2="51.003834" />
    <linearGradient
       inkscape:collect="always"
       xlink:href="#linearGradient4356"
       id="linearGradient4348"
       x1="66.444832"
       y1="24.841532"
       x2="74.25737"
       y2="24.998001"
       gradientUnits="userSpaceOnUse"
       gradientTransform="translate(-59.934388,-16.243845)" />
    <linearGradient
       inkscape:collect="always"
       xlink:href="#linearGradient4356"
       id="linearGradient4364"
       gradientUnits="userSpaceOnUse"
       gradientTransform="translate(-19.934388,-18.243845)"
       x1="66.444832"
       y1="24.841532"
       x2="74.25737"
       y2="24.998001" />
  </defs>
  <sodipodi:namedview
     pagecolor="#ffffff"
     bordercolor="#666666"
     borderopacity="1"
     objecttolerance="10"
     gridtolerance="10"
     guidetolerance="10"
     inkscape:pageopacity="0"
     inkscape:pageshadow="2"
     inkscape:window-width="1920"
     inkscape:window-height="1056"
     id="namedview6285"
     showgrid="false"
     units="px"
     inkscape:zoom="1"
     inkscape:cx="38.598652"
     inkscape:cy="8.6205509"
     inkscape:window-x="0"
     inkscape:window-y="24"
     inkscape:window-maximized="1"
     inkscape:current-layer="svg6281"
     fit-margin-top="0"
     fit-margin-left="0"
     fit-margin-right="0"
     fit-margin-bottom="0">
    <inkscape:grid
       type="axonomgrid"
       id="grid6289"
       units="px"
       empspacing="4"
       spacingy="1"
       gridanglex="22"
       gridanglez="20"
       originx="-71.708645"
       originy="-7.6637404" />
  </sodipodi:namedview>
  <metadata
     id="metadata6283">
    <rdf:RDF>
      <cc:Work
         rdf:about="">
        <dc:format>image/svg+xml</dc:format>
        <dc:type
           rdf:resource="http://purl.org/dc/dcmitype/StillImage" />
        <dc:title />
      </cc:Work>
    </rdf:RDF>
  </metadata>
  <path
     style="fill:#c7b47a;fill-opacity:1;fill-rule:evenodd;stroke:none;stroke-width:1px;stroke-linecap:butt;stroke-linejoin:miter;stroke-opacity:1"
     d="m 56.281502,24.000082 c 0.28617,-0.604365 0.2204,-1.764652 -0.36459,-2.088578 -1.15153,-0.637627 -4.0972,-1.500643 -5.09377,-0.640735 -0.50474,0.435525 -1.24791,1.742649 -0.40683,2.60075 0.84109,0.858101 5.12206,1.697983 5.86519,0.128563 z"
     id="path4899"
     inkscape:connector-curvature="0"
     sodipodi:nodetypes="ssscs" />
  <path
     style="fill:#c7b47a;fill-opacity:1;fill-rule:evenodd;stroke:none;stroke-width:1px;stroke-linecap:butt;stroke-linejoin:miter;stroke-opacity:1"
     d="m 33.354341,12.942315 17.114641,8.885782 0.61459,-0.59895 -16.020892,-8.479533 z"
     id="path4897"
     inkscape:connector-curvature="0"
     sodipodi:nodetypes="ccccc" />
  <path
     style="fill:url(#linearGradient4291);fill-opacity:1;fill-rule:evenodd;stroke:none;stroke-width:1px;stroke-linecap:butt;stroke-linejoin:miter;stroke-opacity:1"
     d="M 10.958429,28.103298 27.482168,8.164016 27.864751,8.978737 12.260519,28.629376 Z"
     id="path3471"
     inkscape:connector-curvature="0"
     sodipodi:nodetypes="ccccc" />
  <path
     style="fill:url(#linearGradient4929);fill-opacity:1;fill-rule:evenodd;stroke:none;stroke-width:1px;stroke-linecap:butt;stroke-linejoin:miter;stroke-opacity:1"
     d="m 32.458501,26.697487 c 3.744361,0.06536 10.482071,0.464268 10.416711,4.208626 -0.0645,3.694515 -6.7222,3.855862 -10.416711,3.791374 -3.744359,-0.06536 -10.482072,-0.464267 -10.416714,-4.208626 0.06449,-3.694516 6.722198,-3.855862 10.416714,-3.791374 z"
     id="path4921"
     inkscape:connector-curvature="0"
     sodipodi:nodetypes="sssss" />
  <path
     style="fill:url(#linearGradient4317);fill-opacity:1;fill-rule:evenodd;stroke:none;stroke-width:1px;stroke-linecap:butt;stroke-linejoin:miter;stroke-opacity:1"
     d="m 27.250144,32.593174 c 0.03224,-1.847258 3.361099,-1.927931 5.208357,-1.895687 1.872181,0.03268 5.241041,0.232132 5.208361,2.104313 -0.0322,1.847259 -3.361102,1.927931 -5.208361,1.895687 -1.872179,-0.03268 -5.241036,-0.232134 -5.208357,-2.104313 z"
     id="path4301"
     inkscape:connector-curvature="0"
     sodipodi:nodetypes="sssss" />
  <path
     style="fill:#b7996a;fill-opacity:1;fill-rule:evenodd;stroke:none;stroke-width:1px;stroke-linecap:butt;stroke-linejoin:miter;stroke-opacity:1"
     d="m 50.628112,22.818483 0.90625,-0.71875 3,0.3125 0,-0.3125 -3.03125,-0.5 z"
     id="path4903"
     inkscape:connector-curvature="0" />
  <path
     style="fill:url(#linearGradient4279);fill-opacity:1;fill-rule:evenodd;stroke:none;stroke-width:1px;stroke-linecap:butt;stroke-linejoin:miter;stroke-opacity:1"
     d="m 25.948055,22.067096 1.302089,0.526078 1.302089,-0.473922 -2.604178,-14.052156 -0.616734,0.224472 z"
     id="path4271"
     inkscape:connector-curvature="0" />
  <path
     style="fill:url(#linearGradient4290);fill-opacity:1;fill-rule:evenodd;stroke:none;stroke-width:1px;stroke-linecap:butt;stroke-linejoin:miter;stroke-opacity:1"
     d="m 24.645965,9.541018 14.322987,5.78686 1.30209,-0.473922 -14.322987,-5.78686 z"
     id="path4281"
     inkscape:connector-curvature="0" />
  <path
     style="fill:#c7b47a;fill-opacity:1;fill-rule:evenodd;stroke:none;stroke-width:1px;stroke-linecap:butt;stroke-linejoin:miter;stroke-opacity:1"
     d="m 33.676942,12.103811 -1.78125,0.3125 0.10133,22.186468 1.04515,0.211321 0.06245,-21.809898 1.84375,-0.3125 z"
     id="path4403"
     inkscape:connector-curvature="0"
     sodipodi:nodetypes="ccccccc" />
  <path
     style="fill:#b7996a;fill-opacity:1;fill-rule:evenodd;stroke:none;stroke-width:1px;stroke-linecap:butt;stroke-linejoin:miter;stroke-opacity:1"
     d="m 50.968982,23.515597 c -0.0663,0.463394 1.74306,0.47572 2.17709,0.651079 0.28108,0.113562 0.80712,0.222152 1.09323,0.121936 0.29413,-0.103026 0.66105,-0.294402 0.74011,-0.595858 0.0846,-0.322428 1.03238,-1.105834 0.71875,-1.21875 -0.30507,-0.109835 -1.05266,0.815742 -1.3388,0.968233 -0.58658,0.312598 -3.2962,-0.584608 -3.39038,0.07336 z"
     id="path4901"
     inkscape:connector-curvature="0"
     sodipodi:nodetypes="sssssss" />
  <path
     style="fill:url(#linearGradient4913);fill-opacity:1;fill-rule:evenodd;stroke:none;stroke-width:1px;stroke-linecap:butt;stroke-linejoin:miter;stroke-opacity:1"
     d="m 51.875232,22.765597 0,-1 c 0,0 0.83404,0.517909 1.30209,0.526079 0.46181,0.0081 1.30209,-0.473922 1.30209,-0.473922 l 0,1 c 0,0 -0.84028,0.481983 -1.30209,0.473922 -0.46805,-0.0082 -1.30209,-0.526079 -1.30209,-0.526079 z"
     id="path4905"
     inkscape:connector-curvature="0"
     sodipodi:nodetypes="ccsccsc" />
  <path
     style="fill:#744b30;fill-opacity:1;fill-rule:evenodd;stroke:none;stroke-width:1px;stroke-linecap:butt;stroke-linejoin:miter;stroke-opacity:1"
     d="m 51.875232,21.765597 c 0.008,-0.461815 0.84028,-0.481982 1.30209,-0.473921 0.46805,0.0082 1.31026,0.05803 1.30209,0.526078 -0.008,0.461815 -0.84028,0.481983 -1.30209,0.473922 -0.46805,-0.0082 -1.31026,-0.05803 -1.30209,-0.526079 z"
     id="path4915"
     inkscape:connector-curvature="0"
     sodipodi:nodetypes="sssss" />
  <path
     style="fill:#c7b47a;fill-opacity:1;fill-rule:evenodd;stroke:none;stroke-width:1px;stroke-linecap:butt;stroke-linejoin:miter;stroke-opacity:1"
     d="m 25.323814,10.294301 1.92633,-0.701127 0,0 -1.302089,1.473922 z"
     id="path4775"
     inkscape:connector-curvature="0" />
  <g
     transform="translate(16.065612,-22.243845)"
     id="g3509">
    <path
       style="fill:url(#linearGradient3517);fill-opacity:1;fill-rule:evenodd;stroke:none;stroke-width:1px;stroke-linecap:butt;stroke-linejoin:miter;stroke-opacity:1"
       d="m 93.789062,42.888672 0,4 c -0.01634,0.93609 1.667426,1.036394 2.603516,1.052734 0.92363,0.01612 2.587416,-0.02364 2.603516,-0.947265 l 0,-4 z"
       id="path3511"
       inkscape:connector-curvature="0"
       sodipodi:nodetypes="ccsccc" />
    <path
       style="fill:#744b30;fill-opacity:1;fill-rule:evenodd;stroke:none;stroke-width:1px;stroke-linecap:butt;stroke-linejoin:miter;stroke-opacity:1"
       d="m 93.788711,42.889175 c 0.01612,-0.923629 1.680549,-0.963965 2.604178,-0.947843 0.93609,0.01634 2.620518,0.116066 2.604179,1.052156 -0.01612,0.923629 -1.68055,0.963966 -2.604179,0.947844 -0.93609,-0.01634 -2.620518,-0.116067 -2.604178,-1.052157 z"
       id="path3513"
       inkscape:connector-curvature="0"
       sodipodi:nodetypes="sssss" />
  </g>
  <path
     sodipodi:nodetypes="cccccccccccc"
     inkscape:connector-curvature="0"
     id="path3515"
     d="m 113.67694,12.103811 -1.78125,0.3125 0.13258,4.592718 -2.1736,3.635798 0,1 2.86152,-3.843939 1.04473,2.422064 1.30078,0.527344 -1.98828,-3.529946 0.0312,-4.216148 1.84375,-0.3125 z"
     style="fill:#c7b47a;fill-opacity:1;fill-rule:evenodd;stroke:none;stroke-width:1px;stroke-linecap:butt;stroke-linejoin:miter;stroke-opacity:1" />
  <g
     transform="translate(-3.934388,-16.243845)"
     id="g3529">
    <path
       style="fill:url(#linearGradient3537);fill-opacity:1;fill-rule:evenodd;stroke:none;stroke-width:1px;stroke-linecap:butt;stroke-linejoin:miter;stroke-opacity:1"
       d="m 93.789062,42.888672 0,4 c -0.01634,0.93609 1.667426,1.036394 2.603516,1.052734 0.92363,0.01612 2.587416,-0.02364 2.603516,-0.947265 l 0,-4 z"
       id="path3531"
       inkscape:connector-curvature="0"
       sodipodi:nodetypes="ccsccc" />
    <path
       style="fill:#744b30;fill-opacity:1;fill-rule:evenodd;stroke:none;stroke-width:1px;stroke-linecap:butt;stroke-linejoin:miter;stroke-opacity:1"
       d="m 93.788711,42.889175 c 0.01612,-0.923629 1.680549,-0.963965 2.604178,-0.947843 0.93609,0.01634 2.620518,0.116066 2.604179,1.052156 -0.01612,0.923629 -1.68055,0.963966 -2.604179,0.947844 -0.93609,-0.01634 -2.620518,-0.116067 -2.604178,-1.052157 z"
       id="path3533"
       inkscape:connector-curvature="0"
       sodipodi:nodetypes="sssss" />
  </g>
  <path
     sodipodi:nodetypes="cccccccccccc"
     inkscape:connector-curvature="0"
     id="path3535"
     d="m 93.676942,12.103811 -1.78125,0.3125 0.13258,10.592718 -2.1736,3.635798 0,1 2.86152,-3.843939 1.04473,2.422064 1.30078,0.527344 -1.98828,-3.529946 0.0312,-10.216148 1.84375,-0.3125 z"
     style="fill:#c7b47a;fill-opacity:1;fill-rule:evenodd;stroke:none;stroke-width:1px;stroke-linecap:butt;stroke-linejoin:miter;stroke-opacity:1" />
  <path
     inkscape:connector-curvature="0"
     id="path4382"
     d="m 72.458192,32.697561 c -0.73495,-0.01283 -1.70044,-0.0021 -2.60352,0.125 l 0,1.66211 c 0.90191,0.156346 1.86666,0.200028 2.60352,0.21289 0.73487,0.01283 1.70051,0.002 2.60351,-0.125 l 0,-1.664062 c -0.90144,-0.15611 -1.8671,-0.198083 -2.60351,-0.210938 z"
     style="fill:url(#linearGradient4388);fill-opacity:1;fill-rule:evenodd;stroke:none;stroke-width:1px;stroke-linecap:butt;stroke-linejoin:miter;stroke-opacity:1" />
  <path
     style="fill:#744b30;fill-opacity:1;fill-rule:evenodd;stroke:none;stroke-width:1px;stroke-linecap:butt;stroke-linejoin:miter;stroke-opacity:1"
     d="m 69.854322,32.64533 c 0.0161,-0.923629 1.68055,-0.963965 2.60418,-0.947843 0.93609,0.01634 2.62052,0.116066 2.60418,1.052156 -0.0161,0.923629 -1.68055,0.963966 -2.60418,0.947844 -0.93609,-0.01634 -2.62052,-0.116067 -2.60418,-1.052157 z"
     id="path4384"
     inkscape:connector-curvature="0"
     sodipodi:nodetypes="sssss" />
  <path
     style="fill:#c7b47a;fill-opacity:1;fill-rule:evenodd;stroke:none;stroke-width:1px;stroke-linecap:butt;stroke-linejoin:miter;stroke-opacity:1"
     d="m 73.676942,12.103811 -1.78125,0.3125 0.13258,16.592718 -2.1736,3.635798 0,1 2.86152,-3.843939 1.04473,2.422064 1.30078,0.527344 -1.98828,-3.529946 0.0312,-16.216148 1.84375,-0.3125 z"
     id="path4386"
     inkscape:connector-curvature="0"
     sodipodi:nodetypes="cccccccccccc" />
  <path
     style="fill:url(#linearGradient4379);fill-opacity:1;fill-rule:evenodd;stroke:none;stroke-width:1px;stroke-linecap:butt;stroke-linejoin:miter;stroke-opacity:1"
     d="m 27.250142,32.593174 c 0.0322,-1.847258 3.3611,-1.927931 5.20836,-1.895687 1.87218,0.03268 5.24104,0.232132 5.20836,2.104313 -0.0322,1.847259 -3.3611,1.927931 -5.20836,1.895687 -1.87218,-0.03268 -5.24104,-0.232134 -5.20836,-2.104313 z"
     id="path4377"
     inkscape:connector-curvature="0"
     sodipodi:nodetypes="sssss" />
  <path
     style="fill:url(#linearGradient4283);fill-opacity:1;fill-rule:evenodd;stroke:none;stroke-width:1px;stroke-linecap:butt;stroke-linejoin:miter;stroke-opacity:1"
     d="m 36.500162,38.421408 1.30209,0.526079 1.30209,-0.473922 -0.99273,-25.692131 -1.08227,-0.26304 z"
     id="path3473"
     inkscape:connector-curvature="0"
     sodipodi:nodetypes="cccccc" />
  <path
     style="fill:url(#linearGradient4299);fill-opacity:1;fill-rule:evenodd;stroke:none;stroke-width:1px;stroke-linecap:butt;stroke-linejoin:miter;stroke-opacity:1"
     d="m 51.843982,33.390597 1.30209,-0.473921 -17.00007,-19.406689 -0.838511,-0.04407 z"
     id="path3475"
     inkscape:connector-curvature="0"
     sodipodi:nodetypes="ccccc" />
  <path
     sodipodi:nodetypes="sssss"
     inkscape:connector-curvature="0"
     id="path3528"
     d="m 67.250142,32.593174 c 0.0322,-1.847258 3.3611,-1.927931 5.20836,-1.895687 1.87218,0.03268 5.24104,0.232132 5.20836,2.104313 -0.0322,1.847259 -3.3611,1.927931 -5.20836,1.895687 -1.87218,-0.03268 -5.24104,-0.232134 -5.20836,-2.104313 z"
     style="fill:url(#linearGradient3530);fill-opacity:1;fill-rule:evenodd;stroke:none;stroke-width:1px;stroke-linecap:butt;stroke-linejoin:miter;stroke-opacity:1" />
  <path
     style="fill:url(#linearGradient3534);fill-opacity:1;fill-rule:evenodd;stroke:none;stroke-width:1px;stroke-linecap:butt;stroke-linejoin:miter;stroke-opacity:1"
     d="m 87.250142,32.593174 c 0.0322,-1.847258 3.3611,-1.927931 5.20836,-1.895687 1.87218,0.03268 5.24104,0.232132 5.20836,2.104313 -0.0322,1.847259 -3.3611,1.927931 -5.20836,1.895687 -1.87218,-0.03268 -5.24104,-0.232134 -5.20836,-2.104313 z"
     id="path3532"
     inkscape:connector-curvature="0"
     sodipodi:nodetypes="sssss" />
  <path
     sodipodi:nodetypes="sssss"
     inkscape:connector-curvature="0"
     id="path3536"
     d="m 107.25014,32.593174 c 0.0322,-1.847258 3.3611,-1.927931 5.20836,-1.895687 1.87218,0.03268 5.24104,0.232132 5.20836,2.104313 -0.0322,1.847259 -3.3611,1.927931 -5.20836,1.895687 -1.87218,-0.03268 -5.24104,-0.232134 -5.20836,-2.104313 z"
     style="fill:url(#linearGradient3538);fill-opacity:1;fill-rule:evenodd;stroke:none;stroke-width:1px;stroke-linecap:butt;stroke-linejoin:miter;stroke-opacity:1" />
  <path
     style="fill:url(#linearGradient4348);fill-opacity:1;fill-rule:evenodd;stroke:none;stroke-width:1px;stroke-linecap:butt;stroke-linejoin:miter;stroke-opacity:1"
     d="m 0,13.967296 c 0,0 6.672356,4.143268 10.416715,4.208626 3.694516,0.06449 10.416714,-3.791374 10.416714,-3.791374 L 10.416715,2 Z"
     id="path3540"
     inkscape:connector-curvature="0"
     sodipodi:nodetypes="csccc" />
  <path
     sodipodi:nodetypes="csccc"
     inkscape:connector-curvature="0"
     id="path4362"
     d="m 40.000002,11.967296 c 0,0 6.67235,4.143268 10.41671,4.208626 3.69452,0.06449 10.41672,-3.791374 10.41672,-3.791374 L 50.416712,0 Z"
     style="fill:url(#linearGradient4364);fill-opacity:1;fill-rule:evenodd;stroke:none;stroke-width:1px;stroke-linecap:butt;stroke-linejoin:miter;stroke-opacity:1" />
</svg>
