<?xml version="1.0" encoding="UTF-8" standalone="no"?>
<!-- Created with Inkscape (http://www.inkscape.org/) -->

<svg
   xmlns:dc="http://purl.org/dc/elements/1.1/"
   xmlns:cc="http://creativecommons.org/ns#"
   xmlns:rdf="http://www.w3.org/1999/02/22-rdf-syntax-ns#"
   xmlns:svg="http://www.w3.org/2000/svg"
   xmlns="http://www.w3.org/2000/svg"
   xmlns:xlink="http://www.w3.org/1999/xlink"
   xmlns:sodipodi="http://sodipodi.sourceforge.net/DTD/sodipodi-0.dtd"
   xmlns:inkscape="http://www.inkscape.org/namespaces/inkscape"
   height="62.806389"
   width="96.363312"
   viewBox="0 0 96.363311 62.80639"
   id="svg6281"
   version="1.1"
   inkscape:version="0.91 r13725"
   sodipodi:docname="bowyers house 1.svg"
   inkscape:export-filename="/home/tim/Code/Lost Garden/Small World/TIMD Compat/house 1.svg.png"
   inkscape:export-xdpi="90"
   inkscape:export-ydpi="90">
  <defs
     id="defs6287">
    <linearGradient
       id="linearGradient4439">
      <stop
         style="stop-color:#ccbd7b;stop-opacity:1;"
         offset="0"
         id="stop4441" />
      <stop
         style="stop-color:#b78c41;stop-opacity:1;"
         offset="1"
         id="stop4443" />
    </linearGradient>
    <linearGradient
       id="linearGradient6936"
       inkscape:collect="always">
      <stop
         id="stop6938"
         offset="0"
         style="stop-color:#986a20;stop-opacity:0" />
      <stop
         id="stop6940"
         offset="1"
         style="stop-color:#986a20;stop-opacity:1" />
    </linearGradient>
    <linearGradient
       inkscape:collect="always"
       id="linearGradient3660">
      <stop
         style="stop-color:#4d4a5d;stop-opacity:1"
         offset="0"
         id="stop3662" />
      <stop
         style="stop-color:#4d4a5d;stop-opacity:0"
         offset="1"
         id="stop3664" />
    </linearGradient>
    <linearGradient
       inkscape:collect="always"
       id="linearGradient3642">
      <stop
         style="stop-color:#b19998;stop-opacity:1"
         offset="0"
         id="stop3644" />
      <stop
         style="stop-color:#4d4a5d;stop-opacity:1"
         offset="1"
         id="stop3646" />
    </linearGradient>
    <linearGradient
       inkscape:collect="always"
       id="linearGradient3636">
      <stop
         style="stop-color:#b19998;stop-opacity:1;"
         offset="0"
         id="stop3638" />
      <stop
         style="stop-color:#c4b59f;stop-opacity:1"
         offset="1"
         id="stop3640" />
    </linearGradient>
    <linearGradient
       inkscape:collect="always"
       id="linearGradient3602">
      <stop
         style="stop-color:#c4b59f;stop-opacity:1"
         offset="0"
         id="stop3604" />
      <stop
         style="stop-color:#b19998;stop-opacity:1"
         offset="1"
         id="stop3606" />
    </linearGradient>
    <linearGradient
       id="linearGradient3250"
       inkscape:collect="always">
      <stop
         id="stop3596"
         offset="0"
         style="stop-color:#726b7e;stop-opacity:1;" />
      <stop
         id="stop3598"
         offset="1"
         style="stop-color:#4d4a5d;stop-opacity:1" />
    </linearGradient>
    <linearGradient
       inkscape:collect="always"
       id="linearGradient3364">
      <stop
         style="stop-color:#b78c41;stop-opacity:0"
         offset="0"
         id="stop3366" />
      <stop
         style="stop-color:#986a20;stop-opacity:1"
         offset="1"
         id="stop3368" />
    </linearGradient>
    <linearGradient
       inkscape:collect="always"
       xlink:href="#linearGradient3250"
       id="linearGradient3256"
       x1="37.420071"
       y1="53.354298"
       x2="36.4585"
       y2="50.73019"
       gradientUnits="userSpaceOnUse"
       gradientTransform="translate(18.157832,-11.994616)" />
    <linearGradient
       inkscape:collect="always"
       xlink:href="#linearGradient3642"
       id="linearGradient3560"
       x1="57.024113"
       y1="58.040318"
       x2="55.187675"
       y2="58.077435"
       gradientUnits="userSpaceOnUse"
       gradientTransform="translate(18.157832,-11.994616)" />
    <linearGradient
       inkscape:collect="always"
       xlink:href="#linearGradient3602"
       id="linearGradient3570"
       x1="52.790791"
       y1="64.785721"
       x2="52.279972"
       y2="63.418072"
       gradientUnits="userSpaceOnUse"
       gradientTransform="translate(18.157832,-11.994616)" />
    <linearGradient
       inkscape:collect="always"
       xlink:href="#linearGradient3636"
       id="linearGradient3634"
       x1="24.739697"
       y1="59.995487"
       x2="23.437607"
       y2="61.46941"
       gradientUnits="userSpaceOnUse" />
    <linearGradient
       inkscape:collect="always"
       xlink:href="#linearGradient3250"
       id="linearGradient3656"
       x1="20.833429"
       y1="57.417252"
       x2="23.437609"
       y2="56.417252"
       gradientUnits="userSpaceOnUse" />
    <linearGradient
       inkscape:collect="always"
       xlink:href="#linearGradient3660"
       id="linearGradient4254"
       x1="26.041786"
       y1="45.521564"
       x2="24.739697"
       y2="48.995487"
       gradientUnits="userSpaceOnUse"
       gradientTransform="translate(18.157832,-11.994616)" />
    <linearGradient
       inkscape:collect="always"
       id="linearGradient5204-3">
      <stop
         style="stop-color:#986a20;stop-opacity:0"
         offset="0"
         id="stop5220" />
      <stop
         style="stop-color:#b78c41;stop-opacity:1"
         offset="1"
         id="stop5222" />
    </linearGradient>
    <linearGradient
       id="linearGradient5230"
       inkscape:collect="always">
      <stop
         id="stop5232"
         offset="0"
         style="stop-color:#b78c41;stop-opacity:0" />
      <stop
         id="stop5234"
         offset="1"
         style="stop-color:#b78c41;stop-opacity:1" />
    </linearGradient>
    <linearGradient
       inkscape:collect="always"
       xlink:href="#linearGradient3636"
       id="linearGradient4721"
       gradientUnits="userSpaceOnUse"
       x1="24.739697"
       y1="59.995487"
       x2="23.437607"
       y2="61.46941" />
    <linearGradient
       inkscape:collect="always"
       xlink:href="#linearGradient3250"
       id="linearGradient4723"
       gradientUnits="userSpaceOnUse"
       x1="20.833429"
       y1="57.417252"
       x2="23.437609"
       y2="56.417252" />
    <linearGradient
       inkscape:collect="always"
       xlink:href="#linearGradient4439"
       id="linearGradient4445"
       x1="3.8348498"
       y1="53.218521"
       x2="11.459886"
       y2="56.249992"
       gradientUnits="userSpaceOnUse"
       gradientTransform="translate(0,-12)" />
    <linearGradient
       inkscape:collect="always"
       xlink:href="#linearGradient3218-7"
       id="linearGradient3224-3"
       x1="54.687752"
       y1="16.273129"
       x2="59.896111"
       y2="16.273129"
       gradientUnits="userSpaceOnUse"
       gradientTransform="translate(20,0)" />
    <linearGradient
       id="linearGradient3218-7">
      <stop
         style="stop-color:#e5e6c7;stop-opacity:1;"
         offset="0"
         id="stop3220-5" />
      <stop
         style="stop-color:#c4b59f;stop-opacity:1;"
         offset="1"
         id="stop3222-9" />
    </linearGradient>
    <linearGradient
       gradientTransform="translate(-5.938669,13.472562)"
       inkscape:collect="always"
       xlink:href="#linearGradient3218-7"
       id="linearGradient5663"
       x1="84.583717"
       y1="0.54400837"
       x2="81.646217"
       y2="0.91207629"
       gradientUnits="userSpaceOnUse" />
    <linearGradient
       inkscape:collect="always"
       xlink:href="#linearGradient3660"
       id="linearGradient4391"
       gradientUnits="userSpaceOnUse"
       gradientTransform="translate(-5.938669,13.472562)"
       x1="83.360306"
       y1="1.6896043"
       x2="83.364098"
       y2="0.49847078" />
    <linearGradient
       inkscape:collect="always"
       xlink:href="#linearGradient3364"
       id="linearGradient5127"
       gradientUnits="userSpaceOnUse"
       gradientTransform="translate(37.512056,-10.352007)"
       x1="31.250143"
       y1="35.625877"
       x2="31.250143"
       y2="36.625877" />
    <linearGradient
       inkscape:collect="always"
       xlink:href="#linearGradient6936"
       id="linearGradient5129"
       gradientUnits="userSpaceOnUse"
       gradientTransform="translate(37.512056,-10.352007)"
       x1="27.343876"
       y1="32.047642"
       x2="31.250143"
       y2="36.625877" />
    <linearGradient
       inkscape:collect="always"
       xlink:href="#linearGradient5204-3"
       id="linearGradient5135"
       gradientUnits="userSpaceOnUse"
       gradientTransform="matrix(-1,0,0,1,46.720077,-30.747294)"
       x1="31.250143"
       y1="35.625877"
       x2="31.250143"
       y2="36.625877" />
    <linearGradient
       inkscape:collect="always"
       xlink:href="#linearGradient5230"
       id="linearGradient5137"
       gradientUnits="userSpaceOnUse"
       gradientTransform="matrix(-1,0,0,1,46.720077,-30.747294)"
       x1="27.343876"
       y1="32.047642"
       x2="31.250143"
       y2="36.625877" />
  </defs>
  <sodipodi:namedview
     pagecolor="#ffffff"
     bordercolor="#666666"
     borderopacity="1"
     objecttolerance="10"
     gridtolerance="10"
     guidetolerance="10"
     inkscape:pageopacity="0"
     inkscape:pageshadow="2"
     inkscape:window-width="1920"
     inkscape:window-height="1056"
     id="namedview6285"
     showgrid="false"
     units="px"
     inkscape:zoom="1"
     inkscape:cx="71.716295"
     inkscape:cy="53.333488"
     inkscape:window-x="0"
     inkscape:window-y="24"
     inkscape:window-maximized="1"
     inkscape:current-layer="svg6281"
     fit-margin-top="0"
     fit-margin-left="0"
     fit-margin-right="0"
     fit-margin-bottom="0"
     showborder="true"
     borderlayer="false"
     inkscape:showpageshadow="true">
    <inkscape:grid
       type="axonomgrid"
       id="grid6289"
       units="px"
       empspacing="4"
       spacingy="1"
       gridanglex="22"
       gridanglez="20"
       originx="18.157832"
       originy="-5.1989919" />
  </sodipodi:namedview>
  <metadata
     id="metadata6283">
    <rdf:RDF>
      <cc:Work
         rdf:about="">
        <dc:format>image/svg+xml</dc:format>
        <dc:type
           rdf:resource="http://purl.org/dc/dcmitype/StillImage" />
        <dc:title></dc:title>
      </cc:Work>
    </rdf:RDF>
  </metadata>
  <g
     transform="translate(18.091688,-11.976281)"
     id="g4713">
    <g
       id="g4704">
      <path
         style="fill:#b19998;fill-opacity:1;fill-rule:evenodd;stroke:none;stroke-width:1px;stroke-linecap:butt;stroke-linejoin:miter;stroke-opacity:1"
         d="m 55.92843,19.652443 1.3635,15.495 5.208357,-1.895687 0,-16 z"
         id="path3206-8"
         inkscape:connector-curvature="0"
         sodipodi:nodetypes="ccccc" />
      <path
         inkscape:connector-curvature="0"
         id="path4395"
         d="m 59.873374,22.194778 2.615228,-0.958892 0.0221,2.005417 -2.604179,0.947844 z"
         style="fill:#726b7e;fill-opacity:1;fill-rule:evenodd;stroke:none;stroke-width:1px;stroke-linecap:butt;stroke-linejoin:miter;stroke-opacity:1"
         sodipodi:nodetypes="ccccc" />
      <path
         style="fill:#e5e6c7;fill-opacity:1;fill-rule:evenodd;stroke:none;stroke-width:1px;stroke-linecap:butt;stroke-linejoin:miter;stroke-opacity:1"
         d="m 52.083573,17.04313 5.208357,2.104313 5.208357,-1.895687 -5.208357,-2.104313 z"
         id="path3208-9"
         inkscape:connector-curvature="0" />
      <path
         style="fill:#c4b59f;fill-opacity:1;fill-rule:evenodd;stroke:none;stroke-width:1px;stroke-linecap:butt;stroke-linejoin:miter;stroke-opacity:1"
         d="m 52.083573,17.04313 0,16 5.208357,2.104313 0,-16 z"
         id="path3210-7"
         inkscape:connector-curvature="0" />
      <path
         style="fill:#726b7e;fill-opacity:1;fill-rule:evenodd;stroke:none;stroke-width:1px;stroke-linecap:butt;stroke-linejoin:miter;stroke-opacity:1"
         d="m 57.289332,21.142272 2.604179,-0.947844 0.0221,2.027515 -2.615227,0.947844 z"
         id="path4385"
         inkscape:connector-curvature="0"
         sodipodi:nodetypes="ccccc" />
      <path
         inkscape:connector-curvature="0"
         id="path4397"
         d="m 54.692948,20.097818 2.604178,1.052157 -0.0221,2.005417 -2.582081,-2.057574 z"
         style="fill:#b19998;fill-opacity:1;fill-rule:evenodd;stroke:none;stroke-width:1px;stroke-linecap:butt;stroke-linejoin:miter;stroke-opacity:1"
         sodipodi:nodetypes="ccccc" />
      <path
         style="fill:#b19998;fill-opacity:1;fill-rule:evenodd;stroke:none;stroke-width:1px;stroke-linecap:butt;stroke-linejoin:miter;stroke-opacity:1"
         d="m 52.10567,17.048761 2.582081,1.03006 0,2.016466 -2.604178,-1.052157 z"
         id="path4387"
         inkscape:connector-curvature="0"
         sodipodi:nodetypes="ccccc" />
    </g>
    <g
       transform="translate(-20,0)"
       id="g4698">
      <path
         style="fill:url(#linearGradient3224-3);fill-opacity:1;fill-rule:evenodd;stroke:none;stroke-width:1px;stroke-linecap:butt;stroke-linejoin:miter;stroke-opacity:1"
         d="m 74.687751,17.095287 c 0,0.868234 1.30209,1.328428 2.604179,1.354507 1.30209,0.02608 2.604179,-0.381961 2.604179,-1.250194 l 0,-3 -5.208358,-0.104313 z"
         id="path3214-3"
         inkscape:connector-curvature="0"
         sodipodi:nodetypes="sssccs" />
      <path
         style="fill:#e5e6c7;fill-opacity:1;fill-rule:evenodd;stroke:none;stroke-width:1px;stroke-linecap:butt;stroke-linejoin:miter;stroke-opacity:1"
         d="m 74.687751,14.095287 c -0.01623,0.929859 1.668089,1.035816 2.604179,1.052156 0.923629,0.01612 2.587948,-0.01798 2.604179,-0.947843 0.01623,-0.929859 -1.668089,-1.035817 -2.604179,-1.052157 -0.923629,-0.01612 -2.587948,0.01798 -2.604179,0.947844 z"
         id="path3216-6"
         inkscape:connector-curvature="0"
         sodipodi:nodetypes="zszsz" />
      <path
         style="fill:url(#linearGradient5663);fill-opacity:1;fill-rule:evenodd;stroke:none;stroke-width:1px;stroke-linecap:butt;stroke-linejoin:miter;stroke-opacity:1"
         d="m 75.44079,14.058363 c -0.01132,0.648818 1.163927,0.722751 1.817093,0.734152 0.644472,0.01125 1.805768,-0.01255 1.817093,-0.661367 0.01132,-0.648819 -1.163926,-0.722752 -1.817093,-0.734153 -0.644471,-0.01125 -1.805767,0.01255 -1.817093,0.661368 z"
         id="path5547"
         inkscape:connector-curvature="0"
         sodipodi:nodetypes="zszsz" />
      <path
         sodipodi:nodetypes="zszsz"
         inkscape:connector-curvature="0"
         id="path4389"
         d="m 75.44079,14.058363 c -0.01132,0.648818 1.163927,0.722751 1.817093,0.734152 0.644472,0.01125 1.805768,-0.01255 1.817093,-0.661367 0.01132,-0.648819 -1.163926,-0.722752 -1.817093,-0.734153 -0.644471,-0.01125 -1.805767,0.01255 -1.817093,0.661368 z"
         style="fill:url(#linearGradient4391);fill-opacity:1;fill-rule:evenodd;stroke:none;stroke-width:1px;stroke-linecap:butt;stroke-linejoin:miter;stroke-opacity:1" />
    </g>
  </g>
  <path
     style="fill:url(#linearGradient3256);fill-opacity:1;fill-rule:evenodd;stroke:none;stroke-width:1px;stroke-linecap:butt;stroke-linejoin:miter;stroke-opacity:1"
     d="m 54.580624,62.80639 31.285853,-11.338413 0,-24.106524 -31.401644,11.273122 z"
     id="path6357"
     inkscape:connector-curvature="0"
     sodipodi:nodetypes="ccccc" />
  <path
     style="fill:#b19998;fill-opacity:1;fill-rule:evenodd;stroke:none;stroke-width:1px;stroke-linecap:butt;stroke-linejoin:miter;stroke-opacity:1"
     d="M 54.580624,62.699263 2.471341,41.536446 2.435632,17.755942 54.565833,37.649825 Z"
     id="path6359"
     inkscape:connector-curvature="0"
     sodipodi:nodetypes="ccccc" />
  <path
     sodipodi:nodetypes="ccccc"
     inkscape:connector-curvature="0"
     id="path4246"
     d="M 54.580624,58.771284 2.614176,37.82272 2.435632,16.470422 54.565833,37.649825 Z"
     style="fill:url(#linearGradient4254);fill-opacity:1;fill-rule:evenodd;stroke:none;stroke-width:1px;stroke-linecap:butt;stroke-linejoin:miter;stroke-opacity:1" />
  <path
     style="fill:#684415;fill-opacity:1;fill-rule:evenodd;stroke:none;stroke-width:1px;stroke-linecap:butt;stroke-linejoin:miter;stroke-opacity:1"
     d="m 54.616333,36.735575 0,2 33.821185,-12.266845 0,-2.107126 z"
     id="path3228"
     inkscape:connector-curvature="0"
     sodipodi:nodetypes="ccccc" />
  <path
     style="fill:#b78c41;fill-opacity:1;fill-rule:evenodd;stroke:none;stroke-width:1px;stroke-linecap:butt;stroke-linejoin:miter;stroke-opacity:1"
     d="M 54.631124,36.719866 88.441978,24.371453 78.043029,9.898311 75.456932,10.804867 72.845583,8.100671 54.675228,14.640787 Z"
     id="path6420"
     inkscape:connector-curvature="0"
     sodipodi:nodetypes="ccccccc" />
  <path
     style="fill:#986a20;fill-opacity:1;fill-rule:evenodd;stroke:none;stroke-width:1px;stroke-linecap:butt;stroke-linejoin:miter;stroke-opacity:1"
     d="m 0.063132,16.709213 -3e-6,-2.107128 54.619192,22.204908 0.05916,1.806664 z"
     id="path3258"
     inkscape:connector-curvature="0"
     sodipodi:nodetypes="ccccc" />
  <path
     style="fill:url(#linearGradient5127);fill-opacity:1;fill-rule:evenodd;stroke:url(#linearGradient5129);stroke-width:0.75;stroke-linecap:round;stroke-linejoin:miter;stroke-miterlimit:4;stroke-dasharray:none;stroke-opacity:1"
     d="M 64.855932,21.695637 68.7622,26.273871"
     id="path3362"
     inkscape:connector-curvature="0" />
  <use
     id="use3398"
     xlink:href="#path3362"
     x="0"
     y="0"
     width="100%"
     height="100%"
     transform="translate(-12.075088,-4.502403)" />
  <use
     id="use3452"
     xlink:href="#path3362"
     x="0"
     y="0"
     width="100%"
     height="100%"
     transform="translate(-6.716534,-4.7449943)" />
  <use
     id="use3454"
     xlink:href="#path3362"
     x="0"
     y="0"
     width="100%"
     height="100%"
     transform="translate(4.004274,0.219371)" />
  <use
     id="use3456"
     xlink:href="#path3362"
     x="0"
     y="0"
     width="100%"
     height="100%"
     transform="translate(7.7e-4,2.732534)" />
  <use
     id="use3458"
     xlink:href="#path3362"
     x="0"
     y="0"
     width="100%"
     height="100%"
     transform="translate(-10.840384,-1.097635)" />
  <use
     id="use3460"
     xlink:href="#path3362"
     x="0"
     y="0"
     width="100%"
     height="100%"
     transform="translate(7.345081,-6.0414358)" />
  <use
     id="use3464"
     xlink:href="#path3362"
     x="0"
     y="0"
     width="100%"
     height="100%"
     transform="translate(8.008102,0.788288)" />
  <use
     id="use3466"
     xlink:href="#path3362"
     x="0"
     y="0"
     width="100%"
     height="100%"
     transform="translate(3.045193,-10.360778)" />
  <use
     id="use3468"
     xlink:href="#path3362"
     x="0"
     y="0"
     width="100%"
     height="100%"
     transform="translate(-0.872697,-8.7123401)" />
  <use
     id="use3470"
     xlink:href="#path3362"
     x="0"
     y="0"
     width="100%"
     height="100%"
     transform="translate(-0.427772,-5.9400087)" />
  <use
     id="use3472"
     xlink:href="#path3362"
     x="0"
     y="0"
     width="100%"
     height="100%"
     transform="translate(18.07464,-2.3380201)" />
  <use
     id="use3474"
     xlink:href="#path3362"
     x="0"
     y="0"
     width="100%"
     height="100%"
     transform="translate(3.465053,-4.2771922)" />
  <use
     id="use3476"
     xlink:href="#path3362"
     x="0"
     y="0"
     width="100%"
     height="100%"
     transform="translate(11.055616,-0.593759)" />
  <use
     id="use3480"
     xlink:href="#path3362"
     x="0"
     y="0"
     width="100%"
     height="100%"
     transform="translate(-3.499073,0.584524)" />
  <use
     id="use3482"
     xlink:href="#path3362"
     x="0"
     y="0"
     width="100%"
     height="100%"
     transform="translate(-4.684019,1.983716)" />
  <use
     id="use3484"
     xlink:href="#path3362"
     x="0"
     y="0"
     width="100%"
     height="100%"
     transform="translate(-5.323689,6.114602)" />
  <use
     id="use3490"
     xlink:href="#path3362"
     x="0"
     y="0"
     width="100%"
     height="100%"
     transform="translate(-11.008725,1.480779)" />
  <use
     id="use3496"
     xlink:href="#path3362"
     x="0"
     y="0"
     width="100%"
     height="100%"
     transform="translate(-2.159781,-3.8176026)" />
  <use
     id="use3498"
     xlink:href="#path3362"
     x="0"
     y="0"
     width="100%"
     height="100%"
     transform="translate(3.374809,2.537425)" />
  <use
     id="use3500"
     xlink:href="#path3362"
     x="0"
     y="0"
     width="100%"
     height="100%"
     transform="translate(0.964159,-9.8072724)" />
  <use
     id="use3506"
     xlink:href="#path3362"
     x="0"
     y="0"
     width="100%"
     height="100%"
     transform="translate(-8.123186,-3.2507209)" />
  <use
     id="use3510"
     xlink:href="#path3362"
     x="0"
     y="0"
     width="100%"
     height="100%"
     transform="translate(-9.620841,-6.280349)" />
  <use
     id="use3516"
     xlink:href="#path3362"
     x="0"
     y="0"
     width="100%"
     height="100%"
     transform="translate(-4.246698,-8.1911085)" />
  <use
     id="use3518"
     xlink:href="#path3362"
     x="0"
     y="0"
     width="100%"
     height="100%"
     transform="translate(-9.218142,7.062305)" />
  <use
     id="use3520"
     xlink:href="#path3362"
     x="0"
     y="0"
     width="100%"
     height="100%"
     transform="translate(-4.556194,-4.4671342)" />
  <use
     id="use3522"
     xlink:href="#path3362"
     x="0"
     y="0"
     width="100%"
     height="100%"
     transform="translate(7.517975,-2.3350737)" />
  <use
     id="use3524"
     xlink:href="#path3362"
     x="0"
     y="0"
     width="100%"
     height="100%"
     transform="translate(5.782169,-9.853657)" />
  <use
     id="use3526"
     xlink:href="#path3362"
     x="0"
     y="0"
     width="100%"
     height="100%"
     transform="translate(6.478161,-12.220938)" />
  <use
     id="use3538"
     xlink:href="#path3362"
     x="0"
     y="0"
     width="100%"
     height="100%"
     transform="translate(13.619885,-5.4538406)" />
  <use
     id="use3548"
     xlink:href="#path3362"
     x="0"
     y="0"
     width="100%"
     height="100%"
     transform="translate(11.535576,-10.667755)" />
  <use
     id="use3550"
     xlink:href="#path3362"
     x="0"
     y="0"
     width="100%"
     height="100%"
     transform="translate(14.431711,-1.698234)" />
  <path
     style="fill:url(#linearGradient3560);fill-opacity:1;fill-rule:evenodd;stroke:none;stroke-width:1px;stroke-linecap:butt;stroke-linejoin:miter;stroke-opacity:1"
     d="m 75.448848,39.151868 -2.603516,0.939454 0,10.009765 2.603516,1.050781 0,-12 z"
     id="path3552"
     inkscape:connector-curvature="0" />
  <path
     style="fill:url(#linearGradient3570);fill-opacity:1;fill-rule:evenodd;stroke:none;stroke-width:1px;stroke-linecap:butt;stroke-linejoin:miter;stroke-opacity:1"
     d="m 72.845332,50.101087 -5.181641,1.886719 0.002,1.99414 7.783204,-2.830078 -2.603516,-1.050781 z"
     id="path3562"
     inkscape:connector-curvature="0" />
  <path
     style="fill:#62351c;fill-opacity:1;fill-rule:evenodd;stroke:none;stroke-width:1px;stroke-linecap:butt;stroke-linejoin:miter;stroke-opacity:1"
     d="m 72.845332,40.091322 -5.195312,1.876953 0.01367,10.019531 5.181641,-1.886719 0,-10.009765 z"
     id="path3572"
     inkscape:connector-curvature="0" />
  <path
     style="fill:#3e2613;fill-opacity:1;fill-rule:evenodd;stroke:none;stroke-width:1px;stroke-linecap:butt;stroke-linejoin:miter;stroke-opacity:1"
     d="m 66.335137,42.470279 0,-2 10.416714,-3.791374 0,2 z"
     id="path3584"
     inkscape:connector-curvature="0" />
  <path
     inkscape:connector-curvature="0"
     id="path3588"
     d="m 67.494391,56.032066 2.604179,1.052157 7.812536,-2.843531 -2.604179,-1.052156 z"
     style="fill:#c4b59f;fill-opacity:1;fill-rule:evenodd;stroke:none;stroke-width:1px;stroke-linecap:butt;stroke-linejoin:miter;stroke-opacity:1" />
  <path
     style="fill:#b19998;fill-opacity:1;fill-rule:evenodd;stroke:none;stroke-width:1px;stroke-linecap:butt;stroke-linejoin:miter;stroke-opacity:1"
     d="m 70.310251,59.100821 -0.107127,-2.071418 -2.639887,-1.052156 0.0026,2.054819 z"
     id="path3590"
     inkscape:connector-curvature="0"
     sodipodi:nodetypes="ccccc" />
  <path
     style="fill:#726b7e;fill-opacity:1;fill-rule:evenodd;stroke:none;stroke-width:1px;stroke-linecap:butt;stroke-linejoin:miter;stroke-opacity:1"
     d="m 70.203124,57.029403 0,2 7.812536,-2.84353 0,-2 z"
     id="path3592"
     inkscape:connector-curvature="0" />
  <path
     style="fill:#2e2533;fill-opacity:1;fill-rule:evenodd;stroke:none;stroke-width:1px;stroke-linecap:butt;stroke-linejoin:miter;stroke-opacity:1"
     d="m 68.903606,49.594005 0.03571,-1.071569 3.906268,-1.421766 0.07142,0.928733 z"
     id="path3610"
     inkscape:connector-curvature="0"
     sodipodi:nodetypes="ccccc" />
  <path
     inkscape:connector-curvature="0"
     id="path3612"
     d="m 68.939315,44.522436 0,-1.03586 3.906268,-1.457475 0,1.071569 z"
     style="fill:#2e2533;fill-opacity:1;fill-rule:evenodd;stroke:none;stroke-width:1px;stroke-linecap:butt;stroke-linejoin:miter;stroke-opacity:1"
     sodipodi:nodetypes="ccccc" />
  <g
     id="g4705"
     transform="translate(18.157832,-11.994616)">
    <path
       sodipodi:nodetypes="ccccc"
       inkscape:connector-curvature="0"
       id="path3614"
       d="m 23.433822,53.498702 2.610536,1.006265 -0.01785,6.089574 -2.565904,-1.122318 z"
       style="fill:#2e2533;fill-opacity:1;fill-rule:evenodd;stroke:none;stroke-width:1px;stroke-linecap:butt;stroke-linejoin:miter;stroke-opacity:1" />
    <path
       sodipodi:nodetypes="ccccc"
       inkscape:connector-curvature="0"
       id="path3616"
       d="m 19.56962,51.945993 -0.03571,-2.035708 7.848244,3.147542 -0.0089,2.017855 z"
       style="fill:#62351c;fill-opacity:1;fill-rule:evenodd;stroke:none;stroke-width:1px;stroke-linecap:butt;stroke-linejoin:miter;stroke-opacity:1" />
    <path
       sodipodi:nodetypes="ccccc"
       inkscape:connector-curvature="0"
       id="path3618"
       d="m 20.833429,60.417252 5.217284,2.086459 -0.0472,-1.929838 -2.565898,-1.104464 z"
       style="fill:url(#linearGradient3634);fill-opacity:1;fill-rule:evenodd;stroke:none;stroke-width:1px;stroke-linecap:butt;stroke-linejoin:miter;stroke-opacity:1" />
    <path
       sodipodi:nodetypes="ccccc"
       inkscape:connector-curvature="0"
       id="path3648"
       d="m 20.833429,60.417252 2.622033,-0.929989 -0.01785,-6.017854 -2.604179,-1.052157 z"
       style="fill:url(#linearGradient3656);fill-opacity:1;fill-rule:evenodd;stroke:none;stroke-width:1px;stroke-linecap:butt;stroke-linejoin:miter;stroke-opacity:1" />
  </g>
  <path
     style="fill:#ccbd7b;fill-opacity:1;fill-rule:evenodd;stroke:none;stroke-width:1px;stroke-linecap:butt;stroke-linejoin:miter;stroke-opacity:1"
     d="M 0,14.568871 18.250961,0 l 36.365372,14.735575 0,22 z"
     id="path4264"
     inkscape:connector-curvature="0"
     sodipodi:nodetypes="ccccc" />
  <path
     style="fill:url(#linearGradient5135);fill-opacity:1;fill-rule:evenodd;stroke:url(#linearGradient5137);stroke-width:0.75;stroke-linecap:round;stroke-linejoin:miter;stroke-miterlimit:4;stroke-dasharray:none;stroke-opacity:1"
     d="M 19.376197,1.30035 15.469929,5.878584"
     id="use4580"
     inkscape:connector-curvature="0" />
  <use
     id="use4627"
     xlink:href="#use4580"
     x="0"
     y="0"
     width="100%"
     height="100%"
     transform="translate(11.344884,13.443112)" />
  <use
     id="use4629"
     xlink:href="#use4580"
     x="0"
     y="0"
     width="100%"
     height="100%"
     transform="translate(21.369183,17.436367)" />
  <use
     id="use4631"
     xlink:href="#use4580"
     x="0"
     y="0"
     width="100%"
     height="100%"
     transform="translate(20.195955,15.549701)" />
  <use
     id="use4633"
     xlink:href="#use4580"
     x="0"
     y="0"
     width="100%"
     height="100%"
     transform="translate(23.837438,17.868186)" />
  <use
     id="use4635"
     xlink:href="#use4580"
     x="0"
     y="0"
     width="100%"
     height="100%"
     transform="translate(21.675829,17.286921)" />
  <use
     id="use4637"
     xlink:href="#use4580"
     x="0"
     y="0"
     width="100%"
     height="100%"
     transform="translate(32.146138,12.562439)" />
  <use
     id="use4639"
     xlink:href="#use4580"
     x="0"
     y="0"
     width="100%"
     height="100%"
     transform="translate(23.328182,13.414854)" />
  <use
     id="use4641"
     xlink:href="#use4580"
     x="0"
     y="0"
     width="100%"
     height="100%"
     transform="translate(27.737975,17.823764)" />
  <use
     id="use4643"
     xlink:href="#use4580"
     x="0"
     y="0"
     width="100%"
     height="100%"
     transform="translate(29.538931,19.03394)" />
  <use
     id="use4645"
     xlink:href="#use4580"
     x="0"
     y="0"
     width="100%"
     height="100%"
     transform="translate(3.380558,4.633585)" />
  <use
     id="use4647"
     xlink:href="#use4580"
     x="0"
     y="0"
     width="100%"
     height="100%"
     transform="translate(2.975248,1.204159)" />
  <use
     id="use4649"
     xlink:href="#use4580"
     x="0"
     y="0"
     width="100%"
     height="100%"
     transform="translate(-2.297606,6.299213)" />
  <use
     id="use4651"
     xlink:href="#use4580"
     x="0"
     y="0"
     width="100%"
     height="100%"
     transform="translate(-4.397259,5.908848)" />
  <use
     id="use4653"
     xlink:href="#use4580"
     x="0"
     y="0"
     width="100%"
     height="100%"
     transform="translate(9.9928477,9.50632)" />
  <use
     id="use4655"
     xlink:href="#use4580"
     x="0"
     y="0"
     width="100%"
     height="100%"
     transform="translate(14.162834,4.774553)" />
  <use
     id="use4657"
     xlink:href="#use4580"
     x="0"
     y="0"
     width="100%"
     height="100%"
     transform="translate(10.498532,3.444616)" />
  <use
     id="use4659"
     xlink:href="#use4580"
     x="0"
     y="0"
     width="100%"
     height="100%"
     transform="translate(4.634713,9.792702)" />
  <use
     id="use4661"
     xlink:href="#use4580"
     x="0"
     y="0"
     width="100%"
     height="100%"
     transform="translate(7.409399,14.866374)" />
  <use
     id="use4663"
     xlink:href="#use4580"
     x="0"
     y="0"
     width="100%"
     height="100%"
     transform="translate(5.570045,6.578137)" />
  <use
     id="use4665"
     xlink:href="#use4580"
     x="0"
     y="0"
     width="100%"
     height="100%"
     transform="translate(15.206737,17.966403)" />
  <use
     id="use4667"
     xlink:href="#use4580"
     x="0"
     y="0"
     width="100%"
     height="100%"
     transform="translate(15.472888,7.375313)" />
  <use
     id="use4669"
     xlink:href="#use4580"
     x="0"
     y="0"
     width="100%"
     height="100%"
     transform="translate(17.678574,7.444744)" />
  <use
     id="use4671"
     xlink:href="#use4580"
     x="0"
     y="0"
     width="100%"
     height="100%"
     transform="translate(14.285986,12.38227)" />
  <use
     id="use4673"
     xlink:href="#use4580"
     x="0"
     y="0"
     width="100%"
     height="100%"
     transform="translate(36.696955,21.351291)" />
  <use
     id="use4675"
     xlink:href="#use4580"
     x="0"
     y="0"
     width="100%"
     height="100%"
     transform="translate(22.57424,21.710867)" />
  <use
     id="use4677"
     xlink:href="#use4580"
     x="0"
     y="0"
     width="100%"
     height="100%"
     transform="translate(33.235415,17.27035)" />
  <use
     id="use4679"
     xlink:href="#use4580"
     x="0"
     y="0"
     width="100%"
     height="100%"
     transform="translate(32.81035,22.704964)" />
  <use
     id="use4681"
     xlink:href="#use4580"
     x="0"
     y="0"
     width="100%"
     height="100%"
     transform="translate(32.088561,25.921916)" />
  <use
     id="use4683"
     xlink:href="#use4580"
     x="0"
     y="0"
     width="100%"
     height="100%"
     transform="translate(36.865999,27.679233)" />
  <use
     id="use4685"
     xlink:href="#use4580"
     x="0"
     y="0"
     width="100%"
     height="100%"
     transform="translate(16.153719,19.508873)" />
  <use
     id="use4687"
     xlink:href="#use4580"
     x="0"
     y="0"
     width="100%"
     height="100%"
     transform="translate(24.71918,24.201416)" />
  <use
     id="use4689"
     xlink:href="#use4580"
     x="0"
     y="0"
     width="100%"
     height="100%"
     transform="translate(-12.183241,7.912581)" />
  <use
     id="use4691"
     xlink:href="#use4580"
     x="0"
     y="0"
     width="100%"
     height="100%"
     transform="translate(-9.19966,9.512202)" />
  <use
     id="use4693"
     xlink:href="#use4580"
     x="0"
     y="0"
     width="100%"
     height="100%"
     transform="translate(-0.065148,13.76739)" />
  <use
     id="use4695"
     xlink:href="#use4580"
     x="0"
     y="0"
     width="100%"
     height="100%"
     transform="translate(0.179797,10.697886)" />
  <use
     id="use4697"
     xlink:href="#use4580"
     x="0"
     y="0"
     width="100%"
     height="100%"
     transform="translate(3.008452,14.193564)" />
  <use
     id="use4699"
     xlink:href="#use4580"
     x="0"
     y="0"
     width="100%"
     height="100%"
     transform="translate(-1.821284,11.05479)" />
  <use
     id="use4701"
     xlink:href="#use4580"
     x="0"
     y="0"
     width="100%"
     height="100%"
     transform="translate(28.316095,10.176683)" />
  <use
     id="use4703"
     xlink:href="#use4580"
     x="0"
     y="0"
     width="100%"
     height="100%"
     transform="translate(21.875339,9.830639)" />
  <g
     id="g4711"
     transform="translate(-7.872536,-22.468635)">
    <path
       style="fill:#2e2533;fill-opacity:1;fill-rule:evenodd;stroke:none;stroke-width:1px;stroke-linecap:butt;stroke-linejoin:miter;stroke-opacity:1"
       d="m 23.433822,53.498702 2.610536,1.006265 -0.01785,6.089574 -2.565904,-1.122318 z"
       id="path4713"
       inkscape:connector-curvature="0"
       sodipodi:nodetypes="ccccc" />
    <path
       style="fill:#62351c;fill-opacity:1;fill-rule:evenodd;stroke:none;stroke-width:1px;stroke-linecap:butt;stroke-linejoin:miter;stroke-opacity:1"
       d="m 19.56962,51.945993 -0.03571,-2.035708 7.848244,3.147542 -0.0089,2.017855 z"
       id="path4715"
       inkscape:connector-curvature="0"
       sodipodi:nodetypes="ccccc" />
    <path
       style="fill:url(#linearGradient4721);fill-opacity:1;fill-rule:evenodd;stroke:none;stroke-width:1px;stroke-linecap:butt;stroke-linejoin:miter;stroke-opacity:1"
       d="m 20.833429,60.417252 5.217284,2.086459 -0.0472,-1.929838 -2.565898,-1.104464 z"
       id="path4717"
       inkscape:connector-curvature="0"
       sodipodi:nodetypes="ccccc" />
    <path
       style="fill:url(#linearGradient4723);fill-opacity:1;fill-rule:evenodd;stroke:none;stroke-width:1px;stroke-linecap:butt;stroke-linejoin:miter;stroke-opacity:1"
       d="m 20.833429,60.417252 2.622033,-0.929989 -0.01785,-6.017854 -2.604179,-1.052157 z"
       id="path4719"
       inkscape:connector-curvature="0"
       sodipodi:nodetypes="ccccc" />
  </g>
  <path
     inkscape:connector-curvature="0"
     id="path4419"
     d="m 82.093762,34.713025 -0.0404,23.085267 1.302089,0.526078 0.0092,-23.166073 z"
     style="fill:#62351c;fill-opacity:1;fill-rule:evenodd;stroke:none;stroke-width:1px;stroke-linecap:butt;stroke-linejoin:miter;stroke-opacity:1"
     sodipodi:nodetypes="ccccc" />
  <path
     style="fill:#3e2613;fill-opacity:1;fill-rule:evenodd;stroke:none;stroke-width:1px;stroke-linecap:butt;stroke-linejoin:miter;stroke-opacity:1"
     d="m 83.311602,58.349097 1.302089,-0.473921 0.02405,-21.241061 -1.329709,-0.52218 z"
     id="path4423"
     inkscape:connector-curvature="0"
     sodipodi:nodetypes="ccccc" />
  <path
     style="fill:#744b30;fill-opacity:1;fill-rule:evenodd;stroke:none;stroke-width:1px;stroke-linecap:butt;stroke-linejoin:miter;stroke-opacity:1"
     d="m 82.012876,34.688991 1.302089,-0.473922 13.024596,5.265903 -1.27999,0.484971 z"
     id="path3781"
     inkscape:connector-curvature="0"
     sodipodi:nodetypes="ccccc" />
  <path
     style="fill:#62351c;fill-opacity:1;fill-rule:evenodd;stroke:none;stroke-width:1px;stroke-linecap:butt;stroke-linejoin:miter;stroke-opacity:1"
     d="m 83.314965,35.215069 0,1 11.745816,4.692217 0,-0.966855 z"
     id="path4583"
     inkscape:connector-curvature="0"
     sodipodi:nodetypes="ccccc" />
  <path
     style="fill:#3e2613;fill-opacity:1;fill-rule:evenodd;stroke:none;stroke-width:1px;stroke-linecap:butt;stroke-linejoin:miter;stroke-opacity:1"
     d="m 95.049731,40.95148 1.30209,-0.473922 0,-1 -1.30209,0.473922 z"
     id="path4585"
     inkscape:connector-curvature="0" />
  <path
     style="fill:#744b30;fill-opacity:1;fill-rule:evenodd;stroke:none;stroke-width:1px;stroke-linecap:butt;stroke-linejoin:miter;stroke-opacity:1"
     d="m 84.593699,38.697142 10.456032,4.254338 1.28,-0.462874 -10.358498,-4.226552 z"
     id="path4587"
     inkscape:connector-curvature="0"
     sodipodi:nodetypes="ccccc" />
  <path
     style="fill:#62351c;fill-opacity:1;fill-rule:evenodd;stroke:none;stroke-width:1px;stroke-linecap:butt;stroke-linejoin:miter;stroke-opacity:1"
     d="m 84.606643,38.704725 -0.0313,11.036454 10.452248,4.226553 0.0534,-10.996051 z"
     id="path4589"
     inkscape:connector-curvature="0"
     sodipodi:nodetypes="ccccc" />
  <path
     style="fill:#3e2613;fill-opacity:1;fill-rule:evenodd;stroke:none;stroke-width:1px;stroke-linecap:butt;stroke-linejoin:miter;stroke-opacity:1"
     d="m 96.298911,42.509021 0.0644,10.996051 -1.35733,0.451825 0.0533,-11.005204 z"
     id="path4591"
     inkscape:connector-curvature="0"
     sodipodi:nodetypes="ccccc" />
  <path
     style="fill:#e5e6c7;fill-opacity:1;fill-rule:evenodd;stroke:none;stroke-width:1px;stroke-linecap:butt;stroke-linejoin:miter;stroke-opacity:1"
     d="m 85.247917,49.497263 9.145694,3.70991 0.0171,-9.997629 -9.221034,-3.658403 z"
     id="path4593"
     inkscape:connector-curvature="0"
     sodipodi:nodetypes="ccccc" />
  <path
     style="fill:none;fill-rule:evenodd;stroke:#3e2613;stroke-width:1.27189124px;stroke-linecap:butt;stroke-linejoin:miter;stroke-opacity:1"
     d="m 92.551601,49.742214 c 0,0 0.79046,-4.914473 0.14392,-5.817232 -0.481773,-0.672692 -5.734695,-1.272709 -5.734695,-1.272709 z"
     id="path4611"
     inkscape:connector-curvature="0"
     sodipodi:nodetypes="cscc" />
  <path
     sodipodi:nodetypes="ccscscc"
     inkscape:connector-curvature="0"
     id="path4635"
     d="m 14.092049,52.923061 2.565846,-0.163546 c 0,0 0.197235,-1.775661 0.581506,-2.815288 0.384271,-1.039626 0.734605,-1.519994 1.394358,-2.022998 0.368975,-1.173509 1.183299,-1.956701 2.420372,-2.468613 1.237073,-0.511912 2.852701,-0.840932 4.028785,-0.575764 l 0.09232,-2.825018"
     style="opacity:0.54900004;fill:none;fill-rule:evenodd;stroke:#2e2533;stroke-width:1px;stroke-linecap:butt;stroke-linejoin:miter;stroke-opacity:1" />
  <path
     style="fill:none;fill-rule:evenodd;stroke:#62351c;stroke-width:1px;stroke-linecap:butt;stroke-linejoin:miter;stroke-opacity:1"
     d="m 13.939244,52.756325 2.344049,-0.390569 c 0,0 0.0067,-1.359188 0.238292,-2.924158 0.23155,-1.564969 1.334417,-2.010784 2.603601,-2.612047 0.385301,-1.30837 1.226501,-2.477331 2.536849,-2.554178 1.310349,-0.07685 2.434174,0.01704 2.434174,0.01704 l 1.007541,-2.506021"
     id="path4633"
     inkscape:connector-curvature="0"
     sodipodi:nodetypes="ccscscc" />
  <path
     style="opacity:0.55;fill:none;fill-rule:evenodd;stroke:#2e2533;stroke-width:1px;stroke-linecap:butt;stroke-linejoin:miter;stroke-opacity:1"
     d="m 23.757731,49.734078 2.098507,2.127855 c 0,0 0.422335,-0.151157 1.517616,-0.480715 1.470721,-1.030346 3.968361,-0.793323 5.069154,-0.26949 1.826667,0.869252 3.787285,4.86664 3.787285,4.86664 l 3.125508,0.117828"
     id="path3502"
     inkscape:connector-curvature="0"
     sodipodi:nodetypes="cccscc" />
  <path
     sodipodi:nodetypes="ccscc"
     inkscape:connector-curvature="0"
     id="path3500"
     d="m 23.801925,49.778273 1.479788,1.818495 c 0,0 4.694544,-1.532705 6.89613,-0.48504 1.826667,0.869251 3.52212,4.689864 3.52212,4.689864 l 3.479061,0.471381"
     style="fill:none;fill-rule:evenodd;stroke:#62351c;stroke-width:1px;stroke-linecap:butt;stroke-linejoin:miter;stroke-opacity:1" />
  <path
     style="fill:none;fill-rule:evenodd;stroke:#744b30;stroke-width:1px;stroke-linecap:butt;stroke-linejoin:miter;stroke-opacity:1"
     d="m 86.881955,48.15445 5.192817,-3.49134"
     id="path4435"
     inkscape:connector-curvature="0" />
  <path
     style="opacity:0.55;fill:#2e2533;fill-opacity:1;stroke:none;stroke-width:1;stroke-linecap:round;stroke-linejoin:miter;stroke-miterlimit:4;stroke-dasharray:none;stroke-dashoffset:0;stroke-opacity:1"
     d="m 13.375,45.478264 c 0,1.372082 -1.805403,1.57447 -5.1875,2.140625 -3.1952441,-0.375 -4.0696259,-1.115045 -4.96875,-2.390625 0.875,-0.809582 1.2735059,-1.890625 4.65625,-1.890625 1.691372,0 3.347622,-4.815677 4.456029,-4.366093 1.108407,0.449583 1.043971,5.820677 1.043971,6.506718 z"
     id="path4449"
     inkscape:connector-curvature="0"
     sodipodi:nodetypes="sccsss" />
  <path
     style="fill:url(#linearGradient4445);fill-opacity:1;fill-rule:evenodd;stroke:none;stroke-width:1px;stroke-linecap:butt;stroke-linejoin:miter;stroke-opacity:1"
     d="m 2.5327604,45.692443 c 0,0 3.4781683,1.931825 5.2525514,1.966099 1.7612756,0.03402 5.1641632,-1.757473 5.1641632,-1.757473 l -1.302089,-1.526078 c 0,0 1.118386,-3.591925 0,-5.25 -0.523535,-0.776172 -2.604179,-1.802157 -2.604179,-1.802157 l 2.604179,-0.947843 -3.9687684,-1.328235 -3.8437679,1.171765 2.6041786,1.052157 c 0,0 -2.0743261,0.753635 -2.6041786,1.510343 -1.2069006,1.723632 0,5.75 0,5.75 z"
     id="path4437"
     inkscape:connector-curvature="0"
     sodipodi:nodetypes="csccscccccscc" />
  <path
     style="fill:none;fill-rule:evenodd;stroke:#986a20;stroke-width:1px;stroke-linecap:butt;stroke-linejoin:miter;stroke-opacity:1"
     d="m 5.7136157,37.597693 1.9650019,0.747048 1.8987107,-0.56231"
     id="path4447"
     inkscape:connector-curvature="0"
     sodipodi:nodetypes="ccc" />
</svg>
