<?xml version="1.0" ?><!DOCTYPE svg  PUBLIC '-//W3C//DTD SVG 1.0//EN'  'http://www.w3.org/TR/2001/REC-SVG-20010904/DTD/svg10.dtd'><svg height="32" style="overflow:visible;enable-background:new 0 0 32 32" viewBox="0 0 32 32" width="32" xml:space="preserve" xmlns="http://www.w3.org/2000/svg" xmlns:xlink="http://www.w3.org/1999/xlink"><g><g id="Tennis_x5F_Ball_2_"><g id="Tennis_x5F_Ball_1_"><circle cx="16" cy="16" id="Tennis_x5F_Ball" r="16" style="fill:#ff0000;"/><path d="M21.5,10.5c2.9,2.9,6.6,4.4,10.4,4.6c-0.1-1-0.2-2-0.5-3        c-2.9-0.3-5.6-1.5-7.8-3.7c-2.2-2.2-3.4-5-3.7-7.8c-1-0.3-2-0.4-3-0.5C17.1,3.8,18.6,7.6,21.5,10.5z" id="Stripes_1_" style="fill:#E6E6E6;"/><path d="M0.5,19.9c2.9,0.3,5.6,1.5,7.8,3.7c2.2,2.2,3.4,5,3.7,7.8c1,0.3,2,0.4,3,0.5        c-0.2-3.8-1.7-7.5-4.6-10.4C7.6,18.6,3.8,17.1,0,16.9C0.1,17.9,0.3,18.9,0.5,19.9z" id="Stripes" style="fill:#E6E6E6;"/></g></g></g></svg>